<svg width="38" height="35" viewBox="0 0 38 35" fill="none" xmlns="http://www.w3.org/2000/svg">
<path d="M28.0144 11.6667C28.0144 9.34601 27.0309 7.12042 25.2802 5.47947C23.5295 3.83853 21.1551 2.91666 18.6793 2.91666C16.2035 2.91666 13.8291 3.83853 12.0784 5.47947C10.3277 7.12042 9.34419 9.34601 9.34419 11.6667C9.34419 21.875 4.67664 24.7917 4.67664 24.7917H32.682C32.682 24.7917 28.0144 21.875 28.0144 11.6667Z" fill="#A99F9F"/>
<path d="M21.3709 30.625C21.0974 31.067 20.7048 31.4339 20.2324 31.6889C19.76 31.9439 19.2244 32.0782 18.6793 32.0782C18.1342 32.0782 17.5986 31.9439 17.1262 31.6889C16.6538 31.4339 16.2612 31.067 15.9877 30.625" stroke="#A99F9F" stroke-width="2" stroke-linecap="round" stroke-linejoin="round"/>
<ellipse cx="27.55" cy="6.85176" rx="6.17977" ry="5.79244" fill="#0499AD"/>
</svg>
